<svg height="512pt" viewBox="-80 0 512 512.001" width="512pt" xmlns="http://www.w3.org/2000/svg"><path d="m15 0c-8.285156 0-15 6.714844-15 15v482c0 8.285156 6.714844 15 15 15s15-6.714844 15-15v-482c0-8.285156-6.714844-15-15-15zm0 0"/><path d="m213.261719 309.660156-38.660157 38.660156v-70.042968l59.871094-59.871094c2.816406-2.8125 4.394532-6.628906 4.394532-10.605469v-96.402343c0-8.28125-6.714844-15-15-15-8.28125 0-15 6.71875-15 15v90.1875l-49.265626 49.269531-49.265624-49.269531v-18.417969l58.265624-43.699219c3.777344-2.835938 6-7.28125 6-12v-80.335938c0-8.28125-6.714843-15-15-15-8.285156 0-15 6.71875-15 15v72.835938l-34.265624 25.699219v-34.269531c0-8.28125-6.71875-15-15-15-8.285157 0-15 6.71875-15 15v96.402343c0 3.976563 1.578124 7.792969 4.390624 10.605469l59.875 59.871094v154.457031c0 8.28125 6.714844 15 15 15 8.285157 0 15-6.71875 15-15v-41.988281l59.875-59.875c5.855469-5.855469 5.855469-15.351563 0-21.210938-5.859374-5.859375-15.359374-5.859375-21.214843 0zm0 0"/><path d="m318.429688 10.261719c-2.617188-7.859375-11.109376-12.105469-18.972657-9.488281-7.859375 2.621093-12.105469 11.117187-9.488281 18.976562 30.800781 92.386719 39.800781 192.191406 26.027344 288.621094-27.152344 190.0625-26.730469 186.5-26.628906 186.515625-1.304688 9.21875 5.867187 17.113281 14.835937 17.113281 7.558594 0 13.796875-5.601562 14.832031-12.875.097656.011719-.464844 3.375 26.664063-186.507812 14.421875-101.019532 4.996093-205.570313-27.269531-302.355469zm0 0"/></svg>