<?xml version="1.0" encoding="iso-8859-1"?>
<!-- Generator: Adobe Illustrator 19.0.0, SVG Export Plug-In . SVG Version: 6.00 Build 0)  -->
<svg version="1.1" id="Layer_1" xmlns="http://www.w3.org/2000/svg" xmlns:xlink="http://www.w3.org/1999/xlink" x="0px" y="0px"
	 viewBox="0 0 512.035 512.035" style="enable-background:new 0 0 512.035 512.035;" xml:space="preserve">
<g>
	<g>
		<path d="M402.877,273.698l-2.368-17.256c37.4,2.144,72.268,19.591,96.406,48.24c3.038,3.604,8.421,4.063,12.025,1.025
			c3.604-3.038,4.063-8.421,1.025-12.025c-27.906-33.129-68.527-52.905-111.816-54.436l-12.942-94.301
			c13.614-0.641,24.332-11.847,24.366-25.476c-0.066-14.111-11.489-25.534-25.6-25.6V76.737
			c18.839-14.114,22.67-40.828,8.556-59.667C378.415-1.77,351.701-5.6,332.862,8.513c-3.244,2.431-6.125,5.312-8.556,8.556h-111
			c-10.813,0.033-20.435,6.868-24.028,17.067h-27.172c-18.314-0.537-33.596,13.874-34.133,32.188c-0.019,0.648-0.019,1.297,0,1.945
			c0,15.704-7.312,16.975-8.533,17.067c-4.713,0-8.533,3.82-8.533,8.533c0,4.713,3.82,8.533,8.533,8.533
			c8.854,0,25.6-7.133,25.6-34.133c-0.572-8.854,6.142-16.495,14.996-17.067c0.689-0.045,1.381-0.045,2.07,0h27.173
			c3.592,10.199,13.214,17.033,24.027,17.067h110.991c2.402,3.226,5.257,6.089,8.476,8.499v17.101
			c-14.132,0.015-25.585,11.468-25.6,25.6c0.066,14.111,11.489,25.534,25.6,25.6h1.09l2.619,19.092
			c-55.16,5.55-108.048,24.843-153.826,56.113c-3.835,2.607-7.604,5.329-11.377,8.136l-18.668-32.14h26.699
			c9.345-0.012,16.918-7.584,16.929-16.929v-10.804c0.017-12.798-9.432-23.637-22.112-25.367L71.289,130.636
			c-7.187-0.969-14.442,1.215-19.9,5.992c-5.575,4.888-8.765,11.948-8.75,19.363v14.679c0.015,14.132,11.468,25.585,25.6,25.6
			h25.533l38.456,66.648c-31.642,32.41-56.206,71.041-72.132,113.444c-37.236,4.335-63.908,38.035-59.573,75.272
			c4.335,37.236,38.035,63.908,75.272,59.573c34.238-3.986,60.052-33,60.028-67.47c0.073-20.89-9.588-40.623-26.134-53.376
			c38.994-97.582,129.167-165.259,233.757-175.44l4.237,30.884c-64.639,19.586-108.825,79.191-108.777,146.732
			c0,4.713,3.82,8.533,8.533,8.533s8.533-3.821,8.533-8.533c-0.052-59.03,37.924-111.375,94.055-129.644l2.361,17.21
			c-62.117,22.178-94.495,90.513-72.316,152.63s90.513,94.494,152.63,72.316c47.55-16.977,79.287-62.023,79.27-112.513
			C512.334,330.468,464.749,278.634,402.877,273.698z M316.483,50.25c0.057,0.315,0.033,0.639,0.097,0.952H213.306
			c-4.713,0-8.533-3.82-8.533-8.533s3.821-8.533,8.533-8.533h103.275c-0.065,0.313-0.04,0.639-0.098,0.954
			c-0.488,2.498-0.748,5.035-0.777,7.58C315.735,45.215,315.995,47.752,316.483,50.25z M417.87,382.954
			c-0.005-0.037-0.01-0.073-0.015-0.11l-7.704-56.213c36.45,9.723,58.117,47.154,48.393,83.605
			c-9.723,36.45-47.154,58.117-83.605,48.393c-36.45-9.723-58.117-47.154-48.393-83.605c4.799-17.988,16.732-33.239,33.038-42.222
			l7.821,56.75c1.822,13.935,14.596,23.755,28.531,21.933C409.873,409.664,419.692,396.89,417.87,382.954z M345.604,20.503
			c3.882-2.243,8.285-3.427,12.768-3.434c14.133,0.012,25.58,11.479,25.568,25.611c-0.012,14.133-11.479,25.58-25.611,25.568
			c-2.298-0.002-4.585-0.313-6.8-0.926c-6.442-1.809-11.925-6.058-15.285-11.844C329.17,43.235,333.361,27.576,345.604,20.503z
			 M366.906,84.461v9.408h-17.067v-9.388c0.31,0.063,0.638,0.039,0.95,0.095c2.5,0.478,5.038,0.732,7.584,0.759
			c2.548-0.029,5.087-0.29,7.588-0.779C366.272,84.5,366.595,84.525,366.906,84.461z M68.239,179.203
			c-4.71-0.006-8.527-3.823-8.533-8.533V155.99c-0.03-2.493,1.035-4.873,2.913-6.512c1.463-1.294,3.351-2.004,5.304-1.996
			c0.399,0.001,0.797,0.029,1.192,0.083l102.863,12.533c4.17,0.62,7.242,4.222,7.196,8.437l0.137,10.667H68.239z M113.477,196.269
			h19.396l24.887,42.845c-1.045,0.881-2.163,1.757-3.171,2.642c-3.474,2.978-6.717,5.878-9.817,8.746L113.477,196.269z
			 M118.756,443.736c0.031,28.088-22.714,50.884-50.802,50.915c-28.088,0.031-50.884-22.714-50.915-50.802
			c-0.03-27.51,21.82-50.058,49.317-50.891c0.313-0.009,1.233-0.037,1.542-0.079c9.509-0.042,18.828,2.659,26.842,7.779
			C109.727,409.829,118.834,426.165,118.756,443.736z M94.744,381.357L94.744,381.357c-2.387-1.025-4.832-1.906-7.324-2.641
			c-0.251-0.076-0.485-0.193-0.736-0.266c-2.784-0.804-5.618-1.427-8.483-1.865c15.918-39.968,39.978-76.187,70.65-106.354
			l0.248-0.237c5.013-4.945,10.426-9.886,16.644-15.163c2.721-2.363,5.521-4.642,8.404-6.929c0.218-0.222,0.424-0.456,0.615-0.702
			c5.853-4.591,11.583-8.798,17.514-12.832c43.575-29.83,93.956-48.215,146.502-53.463l2.321,16.918
			C231.379,208.789,136.647,279.363,94.744,381.357z M332.772,128.003c-2.298,0.007-4.497-0.937-6.075-2.608v0
			c-1.592-1.558-2.479-3.698-2.458-5.925c0.006-4.71,3.823-8.527,8.533-8.533h51.2c2.3-0.006,4.501,0.939,6.079,2.612
			c1.59,1.557,2.476,3.695,2.454,5.921c-0.006,4.71-3.823,8.527-8.533,8.533H332.772z M351.102,145.069h16.892l18.889,137.621
			c0.007,0.058-0.021,0.113-0.014,0.171l14.075,102.279c0.63,4.544-2.542,8.738-7.086,9.368c-0.42,0.058-0.844,0.084-1.268,0.078
			c-4.2-0.019-7.737-3.146-8.271-7.312l-26.355-192.171l-3.341-24.558l-0.046-0.135L351.102,145.069z M494.111,405.275
			c-6.418,51.23-49.975,89.666-101.605,89.661c-56.55,0.004-102.396-45.836-102.4-102.387c-0.003-41.974,25.611-79.698,64.625-95.18
			l2.417,17.579c-42.9,19.523-61.852,70.126-42.329,113.026c19.522,42.9,70.126,61.852,113.026,42.329
			c42.9-19.522,61.852-70.126,42.329-113.026c-11.596-25.482-34.952-43.655-62.502-48.634l-2.428-17.692
			C461.353,297.982,501.14,349.166,494.111,405.275z"/>
	</g>
</g>
<g>
	<g>
		<path d="M96.929,426.502c-6.054-10.28-17.102-16.581-29.032-16.558c-5.982-0.022-11.858,1.586-16.996,4.65
			c-15.999,9.422-21.33,30.029-11.908,46.028c9.422,15.999,30.029,21.33,46.027,11.908
			C101.02,463.108,106.351,442.501,96.929,426.502z M67.898,460.461c-9.215,0.022-16.703-7.431-16.725-16.647
			c-0.014-6.009,3.204-11.562,8.425-14.537c2.508-1.498,5.378-2.282,8.3-2.267c9.237,0.058,16.678,7.594,16.619,16.831
			C84.459,452.996,77.052,460.403,67.898,460.461z"/>
	</g>
</g>
<g>
</g>
<g>
</g>
<g>
</g>
<g>
</g>
<g>
</g>
<g>
</g>
<g>
</g>
<g>
</g>
<g>
</g>
<g>
</g>
<g>
</g>
<g>
</g>
<g>
</g>
<g>
</g>
<g>
</g>
</svg>
