<?xml version="1.0" encoding="iso-8859-1"?>
<!-- Generator: Adobe Illustrator 19.0.0, SVG Export Plug-In . SVG Version: 6.00 Build 0)  -->
<svg version="1.1" id="Capa_1" xmlns="http://www.w3.org/2000/svg" xmlns:xlink="http://www.w3.org/1999/xlink" x="0px" y="0px"
	 viewBox="0 0 512 512" style="enable-background:new 0 0 512 512;" xml:space="preserve">
<g>
	<g>
		<path d="M287.804,88.436c-4.143,0-7.5,3.358-7.5,7.5v6.974c0,4.142,3.357,7.5,7.5,7.5s7.5-3.358,7.5-7.5v-6.974
			C295.304,91.794,291.947,88.436,287.804,88.436z"/>
	</g>
</g>
<g>
	<g>
		<path d="M504.5,469.508h-43.518c23.601-15.88,39.158-42.835,39.158-73.357c0-48.72-39.637-88.357-88.356-88.357
			c-9.281,0-18.232,1.442-26.643,4.108l-6.626-16.06h31.112c15.728,0,28.522-12.795,28.522-28.523
			c0-15.727-12.795-28.522-28.522-28.522h-10.72c0.027-0.396,0.061-0.79,0.061-1.192v-11.724c0-9.523-7.747-17.27-17.27-17.27H352.9
			l-45.982-25.008l-7.613-7.614c-2.929-2.929-7.678-2.93-10.606,0c-2.93,2.929-2.93,7.677-0.001,10.606l8.381,8.381
			c0.509,0.509,1.088,0.942,1.721,1.286l48.61,26.437c1.1,0.598,2.331,0.911,3.583,0.911h30.706c1.251,0,2.27,1.019,2.27,2.27v5.401
			c-3.797-3.362-8.773-5.421-14.23-5.421c-7.556,0-14.201,3.923-18.04,9.831l-58.837-27.084l-38.774-31.186
			c-2.983-2.4-7.296-2.166-10.004,0.542l-4.362,4.363c-14.299-8.02-23.117-23.025-23.117-39.525c0-3.194,0.337-6.389,1.002-9.507
			c2.482-2.003,5.596-3.1,8.84-3.1c3.773,0,7.304,1.454,9.943,4.093l28.308,28.307c2.93,2.929,7.678,2.929,10.607,0
			c2.929-2.929,2.929-7.678,0-10.606l-2.889-2.888c24.192-1.661,43.372-21.86,43.372-46.467v-34.22
			c0-24.094-19.158-40.921-46.59-40.921c-27.868,0-46.592,16.012-46.592,39.843v1.125h-25.361c-4.143,0-7.5,3.358-7.5,7.5
			c0,4.142,3.357,7.5,7.5,7.5h25.361v19.173c0,4.381,0.616,8.62,1.753,12.643c-6.386,0.455-12.438,2.979-17.227,7.239
			c-0.353,0.313-97.305,97.235-97.305,97.235c-11.331,11.331-11.331,29.769,0,41.1l50.063,50.062l-15.96,16.604
			c-15.19-12.323-34.532-19.719-55.572-19.719C39.637,307.794,0,347.431,0,396.151c0,30.522,15.558,57.477,39.158,73.357H15.047
			c-4.143,0-7.5,3.358-7.5,7.5c0,4.142,3.357,7.5,7.5,7.5H504.5c4.143,0,7.5-3.358,7.5-7.5
			C512,472.866,508.643,469.508,504.5,469.508z M300.787,102.631c0,17.42-14.171,31.591-31.59,31.591
			c-3.299,0-6.479-0.51-9.471-1.452V83.458h41.061V102.631z M237.605,67.333c0-5.828,2.278-24.843,31.592-24.843
			c14.572,0,31.59,6.789,31.59,25.921v0.047h-63.182V67.333z M237.605,83.458h7.121v38.181c-0.524-0.426-1.064-0.827-1.614-1.212
			c-3.472-5.071-5.507-11.199-5.507-17.795V83.458z M369.738,240.859c3.593,0,6.516,2.922,6.516,6.515s-2.923,6.516-6.516,6.516
			c-3.592,0-6.515-2.923-6.515-6.516C363.224,243.782,366.147,240.859,369.738,240.859z M314.709,242.592
			c0-2.782-0.435-5.464-1.235-7.984l35.04,16.129c1.623,10.268,10.508,18.152,21.225,18.152c9.627,0,17.797-6.357,20.535-15.093
			h19.354c7.456,0,13.522,6.066,13.522,13.522c0,7.457-6.066,13.523-13.522,13.523H285.023l20.235-17.994
			C311.267,257.805,314.709,250.431,314.709,242.592z M299.709,242.592c0,3.41-1.509,6.619-4.141,8.805
			c-0.064,0.054-0.128,0.109-0.19,0.165l-32.927,29.28h-19.098v-4.412l9.598-9.598c2.145-2.145,2.787-5.371,1.626-8.173
			c-1.16-2.803-3.896-4.63-6.929-4.63h-4.295v-22.873h44.92C294.579,231.156,299.709,236.287,299.709,242.592z M224.544,295.842
			h21.039l-19.039,16.93v-5.091C226.537,306.999,226.424,301.92,224.544,295.842z M239.68,390.807h-6.869
			c3.367-4.003,8.395-6.562,14.025-6.562c10.132,0,18.375,8.243,18.375,18.375c0,8.575-5.913,15.775-13.87,17.792
			c0.534-1.389,0.839-2.89,0.839-4.464v-12.64C252.18,396.414,246.572,390.807,239.68,390.807z M237.18,405.807v7.64h-44.295v-7.64
			H237.18z M211.544,307.823l0.001,80.828H195.32l-5.98-71.975l19.639-19.638C211.325,302.065,211.531,307.396,211.544,307.823z
			 M194.002,249.257l19.068-19.068h15.283v37.716h-15.704L194.002,249.257z M249.932,193.328l28.383,22.829h-38.783
			c-1.087-0.613-2.34-0.968-3.678-0.968h-7.783L249.932,193.328z M201.909,148.878c1.811,18.14,11.661,34.384,26.898,44.359
			l-45.412,45.414l-35.63-35.63L201.909,148.878z M120.434,250.241c-2.64-2.639-4.093-6.17-4.093-9.943s1.453-7.304,4.093-9.943
			l16.726-16.726l67.008,67.007l-26.67,26.669L120.434,250.241z M170.497,321.518l1.696,1.697c0.813,0.813,1.768,1.392,2.783,1.753
			l5.291,63.683h-3.875c-1.635-19.351-9.53-36.943-21.651-50.742L170.497,321.518z M144.299,348.773
			c9.328,10.998,15.492,24.761,17.034,39.877h-6.613c-1.489-13.265-6.87-25.368-14.984-35.13L144.299,348.773z M82.947,398.454
			c1.365,3.206,4.588,5.197,8.409,5.197h48.246c-3.645,25.018-25.233,44.295-51.246,44.295c-28.559,0-51.795-23.235-51.795-51.795
			s23.235-51.795,51.795-51.795c11.214,0,21.598,3.593,30.085,9.673L85.029,388.79C82.38,391.545,81.583,395.248,82.947,398.454z
			 M105.969,388.651l23.286-24.226c5.366,6.902,9.03,15.186,10.348,24.226H105.969z M15,396.151
			c0-40.449,32.907-73.357,73.356-73.357c17.009,0,32.671,5.835,45.127,15.586l-4.566,4.751
			c-11.255-8.63-25.315-13.775-40.561-13.775c-36.831,0-66.795,29.964-66.795,66.795c0,36.831,29.964,66.795,66.795,66.795
			c34.295,0,62.623-25.983,66.363-59.295h6.613c-3.768,36.939-35.059,65.857-72.977,65.857C47.907,469.508,15,436.6,15,396.151z
			 M137.518,469.508L137.518,469.508c21.658-14.564,36.559-38.439,38.875-65.857h1.492v12.296c0,6.893,5.607,12.5,12.5,12.5h35.346
			c5.754,4.714,13.104,7.546,21.105,7.546c18.403,0,33.375-14.972,33.375-33.374c0-7.334-2.384-14.119-6.409-19.632l5.566-5.791
			c2.87-2.986,2.776-7.734-0.21-10.604c-2.985-2.87-7.732-2.777-10.604,0.21l-6.093,6.339c-4.665-2.482-9.982-3.896-15.625-3.896
			c-7.631,0-14.665,2.581-20.291,6.908l-0.001-43.309l41.611-37.002h68.604l-45.138,46.959c-2.87,2.986-2.776,7.734,0.21,10.605
			c2.985,2.87,7.733,2.777,10.604-0.21l55.128-57.354h4.725l8.992,21.798c-28.4,14.711-47.854,44.381-47.854,78.511
			c0,30.522,15.558,57.477,39.158,73.357H137.518z M338.428,396.151c0-27.881,15.637-52.175,38.6-64.583l2.52,6.107
			c-20.585,11.393-34.558,33.33-34.558,58.477c0,36.831,29.964,66.795,66.795,66.795s66.795-29.964,66.795-66.795
			c0-7.79-1.337-15.429-3.973-22.705c-1.411-3.895-5.714-5.91-9.606-4.497c-3.895,1.411-5.908,5.712-4.497,9.606
			c2.041,5.633,3.076,11.553,3.076,17.596c0,28.56-23.235,51.795-51.795,51.795s-51.795-23.235-51.795-51.795
			c0-18.894,10.173-35.449,25.324-44.497l19.537,47.357c1.194,2.894,3.989,4.642,6.937,4.642c0.953,0,1.922-0.183,2.857-0.569
			c2.895-1.194,4.643-3.991,4.642-6.938c0-0.952-0.183-1.92-0.568-2.855l-19.544-47.375c4.039-1.014,8.262-1.56,12.61-1.56
			c10.77,0,21.102,3.289,29.878,9.511c3.381,2.396,8.061,1.598,10.456-1.78c2.396-3.379,1.599-8.06-1.78-10.456
			c-11.325-8.03-24.657-12.275-38.554-12.275c-6.372,0-12.532,0.916-18.373,2.59l-2.518-6.104
			c6.625-1.973,13.634-3.048,20.892-3.048c40.449,0,73.356,32.908,73.356,73.357c0,40.449-32.907,73.357-73.356,73.357
			C371.337,469.509,338.428,436.6,338.428,396.151z"/>
	</g>
</g>
<g>
</g>
<g>
</g>
<g>
</g>
<g>
</g>
<g>
</g>
<g>
</g>
<g>
</g>
<g>
</g>
<g>
</g>
<g>
</g>
<g>
</g>
<g>
</g>
<g>
</g>
<g>
</g>
<g>
</g>
</svg>
