<svg height="512pt" viewBox="0 0 512 511" width="512pt" xmlns="http://www.w3.org/2000/svg"><path d="m59.453125 170.136719c1.53125 0 3.089844-.355469 4.546875-1.101563l.292969-.148437c4.9375-2.46875 6.917969-8.460938 4.449219-13.402344-2.46875-4.9375-8.5-6.933594-13.4375-4.460937l-.414063.207031c-4.917969 2.515625-6.863281 8.542969-4.347656 13.457031 1.769531 3.460938 5.273437 5.449219 8.910156 5.449219zm0 0"/><path d="m491.910156 283.144531c-4.550781-3.128906-10.777344-1.976562-13.90625 2.574219 0 .003906-.101562.152344-.105468.15625-3.160157 4.53125-2.046876 10.765625 2.484374 13.921875 1.742188 1.214844 3.734376 1.796875 5.710938 1.796875 3.15625 0 6.265625-1.492188 8.210938-4.28125l.144531-.210938-8.203125-5.71875 8.238281 5.667969c3.128906-4.550781 1.976563-10.777343-2.574219-13.90625zm0 0"/><path d="m412 140.5c-7.054688 0-14.050781.75-20.898438 2.207031l-27.675781-51.664062v-38.542969h15.976563c14.335937 0 26-11.664062 26-26s-11.664063-26-26-26h-41.976563c-14.335937 0-26 11.664062-26 26v44.933594h-128.058593l-5.03125-14.933594h10.078124c14.335938 0 26-11.660156 26-26 0-14.335938-11.664062-26-26-26h-48c-14.335937 0-26 11.664062-26 26 0 14.339844 11.664063 26 26 26h16.820313l6.167969 18.308594c-4.664063 2.632812-8.5 6.6875-10.832032 11.742187l-30.792968 56.339844c-7.121094-1.582031-14.414063-2.390625-21.777344-2.390625-5.523438 0-10 4.476562-10 10s4.476562 10 10 10c3.933594 0 7.835938.28125 11.6875.847656l-6.214844 11.371094c-1.824218-.144531-3.648437-.21875-5.472656-.21875-37.496094 0-68 30.503906-68 68s30.503906 68 68 68c25.777344 0 49.398438-14.839844 60.816406-37.566406h13.222656c-12.105468 29.722656-40.972656 49.566406-74.039062 49.566406-44.113281 0-80-35.886719-80-80 0-21.742188 8.574219-42.082031 24.140625-57.269531 3.953125-3.855469 4.03125-10.1875.175781-14.140625-3.855468-3.953125-10.1875-4.03125-14.140625-.175782-19.460937 18.980469-30.175781 44.40625-30.175781 71.585938 0 22.464844 7.445312 43.222656 20 59.933594v162.1875c0 26.402344 21.480469 47.878906 47.878906 47.878906 26.398438 0 47.878906-21.476562 47.878906-47.878906v-64.996094c0-8.0625 6.558594-14.621094 14.621094-14.621094s14.621094 6.558594 14.621094 14.621094v11.4375c0 11.820312 9.617188 21.4375 21.4375 21.4375h90.570312v10c0 16.542969 13.457032 30 30 30h40c5.523438 0 10-4.476562 10-10v-10h30c5.523438 0 10-4.480469 10-10 0-5.523438-4.476562-10-10-10h-30v-20h30c5.523438 0 10-4.476562 10-10 0-5.519531-4.476562-10-10-10h-30v-10c0-5.523438-4.476562-10-10-10h-40c-16.542968 0-30 13.457031-30 30v10h-90.570312c-.765625 0-1.4375-.671875-1.4375-1.4375v-11.4375c0-19.09375-15.53125-34.621094-34.621094-34.621094s-34.621094 15.527344-34.621094 34.621094v64.996094c0 15.375-12.507812 27.878906-27.878906 27.878906s-27.878906-12.503906-27.878906-27.878906v-142.171875c16.726562 12.582031 37.507812 20.050781 60 20.050781 22.722656 0 44.964844-7.828125 62.636719-22.042969 15.300781-12.308593 26.6875-28.96875 32.632812-47.523437h28.476563c7.714844 9.785156 19.660156 16.085937 33.0625 16.085937 23.207031 0 42.085937-18.878906 42.085937-42.085937 0-5.910156-1.230469-11.539063-3.441406-16.648438.058594-.097656.121094-.1875.175781-.285156l41.570313-76.058594 7.710937 14.398438c-21.015625 18.945312-32.910156 45.527344-32.910156 74.160156 0 55.140625 44.859375 100 100 100 17.703125 0 35.101562-4.6875 50.3125-13.5625 4.773438-2.78125 6.382812-8.90625 3.601562-13.675781-2.78125-4.773438-8.90625-6.382813-13.675781-3.601563-12.160156 7.09375-26.070312 10.839844-40.238281 10.839844-44.113281 0-80-35.886719-80-80 0-21.207031 8.15625-41.011719 22.710938-55.859375l6.007812 11.210937c-10.703125 12.308594-16.71875 28.191407-16.71875 44.648438 0 37.496094 30.503906 68 68 68s68-30.503906 68-68-30.507812-68-68-68c-1.617188 0-3.234375.058594-4.851562.171875l-.46875-.875-5.648438-10.550781c3.621094-.496094 7.285156-.746094 10.96875-.746094 44.113281 0 80 35.886719 80 80 0 7.554688-1.050781 15.027344-3.121094 22.210938-1.53125 5.304687 1.53125 10.847656 6.839844 12.378906 5.304688 1.527344 10.847656-1.53125 12.375-6.839844 2.59375-8.984375 3.90625-18.320312 3.90625-27.75 0-55.140625-44.859375-100-100-100zm-277.585938-110c0-3.25 2.75-6 6-6h48c3.253907 0 6 2.75 6 6 0 3.253906-2.746093 6-6 6h-48c-3.25 0-6-2.746094-6-6zm142.59375 370c0-5.515625 4.484376-10 10-10h30v60h-30c-5.515624 0-10-4.484375-10-10zm-177.007812-112c-26.46875 0-48-21.53125-48-48 0-24.601562 18.605469-44.925781 42.480469-47.671875l-21.699219 39.699219c-6.839844 12.5625-2.1875 28.347656 10.378906 35.191406 3.40625 1.851562 7.199219 2.921875 11.054688 3.125.441406.058594.890625.089844 1.351562.089844h41.515625c-8.976562 10.875-22.539062 17.566406-37.082031 17.566406zm41.109375-72.804688c.640625 1.058594 1.238281 2.136719 1.792969 3.238282h-3.5625zm10.589844-19.375 6.097656-11.152343c9.164063 9.527343 15.753906 21.074219 19.273437 33.765625h-12.558593c-2.761719-8.300782-7.09375-15.945313-12.8125-22.613282zm45.964843 22.613282c-4.378906-20.035156-14.742187-38.046875-29.914062-51.980469l23.789062-43.519531h102.113282l-43.574219 79.722656c-.046875.085938-.082031.171875-.125.257812-10.582031 1.738282-19.835937 7.4375-26.207031 15.519532zm59.144532 48.085937c-12.179688 0-22.089844-9.90625-22.089844-22.085937 0-12.179688 9.910156-22.085938 22.089844-22.085938 12.175781 0 22.085937 9.90625 22.085937 22.085938 0 12.179687-9.910156 22.085937-22.085937 22.085937zm80.519531-146.09375c-.011719 0-.027344 0-.039063 0-3.65625 0-7.023437 1.996094-8.777343 5.207031l-46.515625 85.105469c-3.160156-2.371093-6.664063-4.296875-10.421875-5.710937l47.714843-87.296875c1.691407-3.101563 1.625-6.859375-.175781-9.898438-1.800781-3.035156-5.066406-4.898437-8.597656-4.898437h-124.90625c-3.65625 0-7.023437 1.996094-8.777344 5.203125l-63.128906 115.503906c-1.691406 3.097656-1.628906 6.855469.175781 9.894531 1.800782 3.035156 5.066406 4.898438 8.597656 4.898438h92.675782c-.28125 1.960937-.433594 3.960937-.433594 6 0 2.039062.152344 4.039062.433594 6h-118.53125c-.351563-.039063-.703125-.054688-1.054688-.054688-.007812 0-.011718 0-.019531 0-.988281 0-1.9375-.246094-2.824219-.726562-2.875-1.566406-3.941406-5.183594-2.382812-8.046875l79.964844-146.300781c.136718-.253907.265624-.511719.382812-.777344.953125-2.175782 3.101562-3.582032 5.472656-3.59375h.023438.074218 145.167969c5.523438 0 10-4.480469 10-10v-54.933594c0-3.308594 2.691407-6 6-6h41.976563c3.308594 0 6 2.691406 6 6s-2.691406 6-6 6h-25.976563c-5.523437 0-10 4.476562-10 10v51.050781c0 1.648438.410157 3.269531 1.1875 4.722657l77.0625 143.867187c.746094 1.398437.902344 3.007813.4375 4.523437-.460937 1.515626-1.484375 2.761719-2.882812 3.507813-2.890625 1.542969-6.496094.445313-8.042969-2.457031l-65.082031-121.507813c-1.738281-3.238281-5.105469-5.265625-8.777344-5.28125zm122.671875 119.574219c0 26.46875-21.53125 48-48 48s-48-21.53125-48-48c0-8.953125 2.535156-17.660156 7.152344-25.164062l22.394531 41.804687c6.730469 12.617187 22.472656 17.410156 35.089844 10.679687 6.117187-3.257812 10.59375-8.703124 12.609375-15.332031 2.019531-6.628906 1.332031-13.644531-1.9375-19.773437l-21.332032-39.828125c23.65625 2.953125 42.023438 23.171875 42.023438 47.613281zm0 0"/></svg>