<svg height="512pt" viewBox="0 0 512 512" width="512pt" xmlns="http://www.w3.org/2000/svg"><path d="m50 442c-5.519531 0-10 4.480469-10 10s4.480469 10 10 10 10-4.480469 10-10-4.480469-10-10-10zm0 0"/><path d="m80 352c-44.113281 0-80 35.886719-80 80s35.886719 80 80 80h90c5.523438 0 10-4.476562 10-10s-4.476562-10-10-10h-37.167969c16.640625-14.671875 27.167969-36.121094 27.167969-60 0-30.058594-17.042969-57.488281-43.285156-71.082031l10.601562-28.929688h64.398438c-2.101563 5.90625-2.3125 12.359375-.484375 18.515625l19.898437 104.457032c2.71875 14.3125 20.503906 26.25 38.011719 20.609374 14.378906-4.605468 22.886719-19.101562 20.433594-33.570312h51.074219c4.9375 39.40625 38.628906 70 79.351562 70h90c5.523438 0 10-4.476562 10-10s-4.476562-10-10-10h-37.167969c16.640625-14.671875 27.167969-36.121094 27.167969-60 0-44.113281-35.886719-80-80-80-15.21875 0-30.125 4.382812-42.890625 12.472656l-26.871094-32.480468c16.433594-.128907 29.761719-13.53125 29.761719-29.992188 0-16.542969-13.457031-30-30-30h-41.730469c-.898437-2.53125-2.117187-4.953125-3.6875-7.195312l-13.519531-19.3125 23.03125-11.277344c16.558594-8.101563 21.953125-29.066406 11.386719-44.160156l-26.410157-37.699219c-8.449218-12.070313-24.769531-16.210938-37.949218-9.636719l-32.183594 16.03125c-4.175781-3.402344-9.199219-5.628906-14.507812-6.417969 3.535156-5.964843 5.570312-12.914062 5.570312-20.332031 0-22.054688-17.945312-40-40-40s-40 17.945312-40 40 17.945312 40 40 40c.492188 0 .984375-.019531 1.472656-.035156l-30.011718 60.035156h-41.460938c-13.035156 0-24.152344 8.359375-28.28125 20h-11.71875c-16.542969 0-30 13.457031-30 30s13.457031 30 30 30c5.523438 0 10-4.476562 10-10s-4.476562-10-10-10c-5.515625 0-10-4.484375-10-10s4.484375-10 10-10h11.71875c4.128906 11.640625 15.246094 20 28.28125 20h30.683594l-22.746094 62.027344c-5.847656-1.339844-11.847656-2.027344-17.9375-2.027344zm60 80c0 33.085938-26.914062 60-60 60s-60-26.914062-60-60 26.914062-60 60-60c3.714844 0 7.382812.34375 10.980469 1.007812l-20.371094 55.550782c-1.898437 5.183594.761719 10.929687 5.949219 12.832031 5.214844 1.910156 10.941406-.792969 12.832031-5.949219l20.363281-55.542968c18.417969 10.554687 30.246094 30.414062 30.246094 52.101562zm112.53125-84.714844 10.1875-15.285156h26.953125l-31.84375 45.03125zm126.214844 74.714844h-37.910156c1.816406-10.816406 6.558593-20.902344 13.742187-29.214844zm-58.117188 0h-54.789062l-3.082032-17.300781 46.855469-66.257813 32.082031 38.777344c-11.609374 12.34375-18.964843 27.980469-21.066406 44.78125zm79.371094-50c33.085938 0 60 26.914062 60 60s-26.914062 60-60 60c-29.675781 0-54.375-21.660156-59.152344-50h59.152344c3.875 0 7.398438-2.238281 9.050781-5.742188 1.644531-3.503906 1.125-7.648437-1.347656-10.632812l-37.707031-45.578125c9.074218-5.230469 19.4375-8.046875 30.003906-8.046875zm-60-70c0 5.515625-4.484375 10-10 10h-53.949219l8.910157-13.363281c1.386718-2.082031 2.480468-4.3125 3.304687-6.636719h41.734375c5.515625 0 10 4.484375 10 10zm-89.957031-141.382812c4.394531-2.1875 9.828125-.8125 12.648437 3.210937l26.40625 37.695313c3.511719 5.011718 1.78125 12-3.796875 14.726562l-25.851562 12.660156-37.871094-54.113281zm-110.042969-28.617188c0-11.027344 8.972656-20 20-20s20 8.972656 20 20-8.972656 20-20 20-20-8.972656-20-20zm-60 130c0-5.515625 4.484375-10 10-10h47.640625c3.789063 0 7.25-2.140625 8.945313-5.527344l34.464843-68.945312c1.566407-3.128906 4.71875-5.234375 8.28125-5.5 3.410157-.273438 6.742188 1.3125 8.800781 4.171875 1.816407 3.011719 26.289063 37.558593 70.0625 100.074219 2.359376 3.371093 2.410157 7.839843.121094 11.269531l-34.65625 51.988281c-1.429687 2.148438-1.976562 4.761719-1.523437 7.300781 18.261719 102.535157 17.074219 96.136719 17.386719 97.121094 1.679687 5.25-1.230469 10.890625-6.5 12.578125-5.011719 1.613281-10.488282-.957031-12.382813-6.011719-21.167969-110.984375-19.816406-104.382812-20.167969-105.484375-.933594-2.90625-.496094-6.03125 1.207032-8.578125 11.785156-17.679687 20.808593-31.21875 32.421874-48.640625 2.285157-3.429687 2.230469-7.90625-.128906-11.28125l-42.910156-61.300781c-2.023438-2.886719-5.414062-4.5-8.929688-4.238281-3.515624.261718-6.632812 2.351562-8.207031 5.503906l-24.976562 49.972656c-1.707031 3.410156-5.136719 5.527344-8.949219 5.527344h-60c-5.515625 0-10-4.484375-10-10zm70 30c11.433594 0 21.714844-6.351562 26.835938-16.578125l17.472656-34.960937 29.363281 41.945312-19.726563 29.59375h-69.292968l7.332031-20zm0 0"/><path d="m70 462c0 5.523438 4.476562 10 10 10 22.054688 0 40-17.945312 40-40 0-5.523438-4.476562-10-10-10s-10 4.476562-10 10c0 11.027344-8.972656 20-20 20-5.523438 0-10 4.476562-10 10zm0 0"/><path d="m420 432c0 5.332031-2.082031 10.347656-5.878906 14.136719-3.773438 3.78125-8.789063 5.863281-14.121094 5.863281-5.523438 0-10 4.476562-10 10s4.476562 10 10 10c10.679688 0 20.722656-4.167969 28.265625-11.722656 7.566406-7.554688 11.734375-17.597656 11.734375-28.277344s-4.167969-20.722656-11.734375-28.277344c-3.90625-3.902344-10.238281-3.898437-14.144531.011719-3.898438 3.910156-3.894532 10.242187.015625 14.144531 3.78125 3.773438 5.863281 8.789063 5.863281 14.121094zm0 0"/><path d="m482 60h-11.003906c-4.644532-22.792969-24.851563-40-48.996094-40-6.125 0-12.125 1.109375-17.753906 3.25-9.027344-14.242188-24.882813-23.25-42.246094-23.25-27.570312 0-50 22.429688-50 50 0 3.816406.460938 7.601562 1.316406 11.285156-12.320312 3.734375-21.316406 15.191406-21.316406 28.714844 0 16.574219 13.425781 30 30 30h160c16.542969 0 30-13.457031 30-30s-13.457031-30-30-30zm-120-40c10.429688 0 19.941406 5.414062 25.355469 13.964844-7.324219 7.039062-12.328125 16.113281-14.347657 26.035156h-39.289062c-1.125-3.195312-1.71875-6.574219-1.71875-10 0-16.542969 13.457031-30 30-30zm120 80h-160c-5.519531 0-10-4.480469-10-10 0-5.515625 4.484375-10 10-10h60c5.523438 0 10-4.476562 10-10 0-10.019531 4.980469-19.347656 13.324219-24.945312 4.941406-3.308594 10.703125-5.054688 16.675781-5.054688 16.542969 0 30 13.457031 30 30 0 5.523438 4.476562 10 10 10h20c5.515625 0 10 4.484375 10 10s-4.484375 10-10 10zm0 0"/></svg>