<?xml version="1.0" encoding="iso-8859-1"?>
<!-- Generator: Adobe Illustrator 19.0.0, SVG Export Plug-In . SVG Version: 6.00 Build 0)  -->
<svg version="1.1" id="Capa_1" xmlns="http://www.w3.org/2000/svg" xmlns:xlink="http://www.w3.org/1999/xlink" x="0px" y="0px"
	 viewBox="0 0 511.999 511.999" style="enable-background:new 0 0 511.999 511.999;" xml:space="preserve">
<g>
	<g>
		<g>
			<path d="M157.041,116.031l-18.646-18.646h-11.56l-3.786-11.21l-15.225-10.929H83.944L68.719,86.176l-3.786,11.211H39.122
				l-18.646,18.645v31.722h136.564V116.031z M142.041,132.754H35.476v-10.51l9.858-9.858h30.365l5.687-16.839l7.385-5.3h14.229
				l7.384,5.3l5.687,16.839h16.114l9.858,9.858V132.754z"/>
			
				<rect x="310.497" y="30.184" transform="matrix(-0.7071 0.7071 -0.7071 -0.7071 589.5674 -112.0818)" width="14.999" height="71.757"/>
			
				<rect x="272.759" y="20.809" transform="matrix(-0.7071 0.7071 -0.7071 -0.7071 498.4489 -149.8471)" width="14.999" height="14.999"/>
			
				<rect x="255.067" y="3.116" transform="matrix(0.7071 0.7071 -0.7071 0.7071 84.4099 -182.5529)" width="14.999" height="14.999"/>
			
				<rect x="175.862" y="79.006" transform="matrix(0.7071 0.7071 -0.7071 0.7071 121.4641 -120.2287)" width="59.998" height="14.999"/>
			
				<rect x="229.525" y="130.525" transform="matrix(0.7071 0.7071 -0.7071 0.7071 172.9814 -141.5651)" width="55.7" height="14.999"/>
			
				<rect x="232.394" y="84.664" transform="matrix(0.7071 0.7071 -0.7071 0.7071 146.539 -169.449)" width="90.837" height="14.999"/>
			<path d="M306.342,388.15l0.672-14.985c-11.858-0.521-23.465,3.975-31.853,12.362l10.607,10.606
				C291.184,390.716,298.691,387.797,306.342,388.15z"/>
			<path d="M332.458,415.473c0.001,0.411-0.009,0.821-0.027,1.231l14.986,0.649c0.027-0.626,0.041-1.253,0.041-1.88
				c0-5.498-1.044-10.858-3.102-15.934l-13.9,5.637C331.784,408.452,332.458,411.917,332.458,415.473z"/>
			<path d="M299.168,442.177l-3.24,14.646c3.007,0.666,6.097,1.003,9.182,1.003c7.422,0,14.728-1.949,21.127-5.637l-7.488-12.997
				C312.904,442.558,305.786,443.64,299.168,442.177z"/>
			<path d="M324.901,434.351l10.85,10.357c4.254-4.456,7.42-9.655,9.411-15.452l-14.188-4.872
				C329.692,428.119,327.648,431.472,324.901,434.351z"/>
			<path d="M70.203,243.383c0,34.636,28.178,62.813,62.813,62.813c20.777,0,39.223-10.148,50.664-25.739l11.036,5.959l-0.305,0.305
				l33.709,33.709l2.456-2.456l113.606,23.047l-11.592,17.982c-8.307-4.059-17.631-6.344-27.482-6.344
				c-34.636,0-62.813,28.178-62.813,62.814c0,34.636,28.178,62.813,62.813,62.813s62.814-28.178,62.814-62.813
				c0-19.413-8.856-36.795-22.736-48.326l30.54-47.374l7.973,7.973l45.774-55.825c3.586-1.139,6.874-3.123,9.612-5.861
				c9.294-9.294,9.294-24.415,0-33.709l-26.789-26.789l23.951-23.95v-21.864c2.481,0.346,5.011,0.539,7.586,0.539
				c16.106,0,30.602-7.011,40.608-18.137l16.953,16.953l10.607-10.606l-19.018-19.018c3.504-7.202,5.474-15.282,5.474-23.814
				c0-30.119-24.504-54.624-54.624-54.624s-54.622,24.504-54.622,54.624c0,2.575,0.192,5.105,0.539,7.586h-21.865L259.765,221.366
				l-65.722,7.173c-6.689-27.493-31.505-47.97-61.026-47.97C98.38,180.568,70.203,208.748,70.203,243.383z M352.922,415.473
				c0,26.365-21.449,47.814-47.815,47.814c-26.364,0-47.814-21.449-47.814-47.814c0-26.364,21.449-47.815,47.814-47.815
				c6.857,0,13.376,1.462,19.276,4.073l-14.39,22.32c-1.573-0.359-3.207-0.555-4.887-0.555c-12.118,0-21.976,9.859-21.976,21.976
				c0,12.118,9.858,21.976,21.976,21.976s21.976-9.859,21.976-21.976c0-4.99-1.674-9.594-4.487-13.287l14.386-22.315
				C346.758,388.633,352.922,401.344,352.922,415.473z M312.083,415.473c0,3.847-3.13,6.977-6.977,6.977s-6.977-3.13-6.977-6.977
				c0-3.847,3.13-6.977,6.977-6.977S312.083,411.627,312.083,415.473z M352.906,327.487l-109.608-22.236l48.32-48.32l64.895,64.961
				L352.906,327.487z M382.597,305.433l-9.408-9.408l-8.361,12.969l-62.604-62.668l8.552-8.552l11.587,11.587v6.946h15v-2.896
				l1.882-0.089l15.792-0.743v36.433h15v-41.187l8.551-8.552l26.784,26.784c0.002,0.002,0.003,0.003,0.005,0.005
				c1.773,1.773,3.778,3.227,5.944,4.344L382.597,305.433z M422.228,240.369c4.881,0,8.837,3.957,8.837,8.837
				s-3.956,8.837-8.837,8.837s-8.837-3.956-8.837-8.837C413.392,244.325,417.348,240.369,422.228,240.369z M412.818,227.298
				c-2.744,1.18-5.268,2.878-7.443,5.053c-2.209,2.209-3.875,4.753-5.034,7.463l-51.579-51.579l36.114-36.114h7.129l5.368,5.368
				v7.129l-23.617,23.617L412.818,227.298z M401.689,194.956l-6.721-6.721l17.405-17.405v-19.379l8.874,8.874v15.074h0
				L401.689,194.956z M463.977,139.764l-19.606-19.621c-5.662-5.663-6.62-14.276-2.874-20.936l32.317,32.318
				C471.008,134.772,467.689,137.563,463.977,139.764z M443.832,66.039c21.849,0,39.624,17.776,39.624,39.624
				c0,4.3-0.698,8.439-1.97,12.319l-40.445-40.444l-7.277,7.277c-12.663,12.665-12.663,33.27-0.002,45.932l14.301,14.312
				c-1.391,0.148-2.802,0.229-4.231,0.229c-21.848,0-39.623-17.774-39.623-39.624S421.983,66.039,443.832,66.039z M374.095,128.249
				h15.074l8.874,8.874h-19.379l-51.114,51.114l40.43,40.43l-8.696,8.696l-15.343,0.723l-11.119,0.523l-22.046-22.045
				l-82.657,82.657l-12.497-12.497L374.095,128.249z M195.83,243.432l46.999-5.129l-37.043,37.043l-14.734-7.955
				C194.119,260.004,195.823,251.915,195.83,243.432z M177.763,260.216l-22.82-12.322l25.845-2.821
				C180.602,250.386,179.551,255.478,177.763,260.216z M178.963,230.184l-26.543,2.897c-3.699-6.939-11.008-11.674-19.404-11.674
				c-12.118,0-21.976,9.859-21.976,21.976s9.859,21.976,21.976,21.976c5.195,0,9.971-1.816,13.737-4.841l23.567,12.726
				c-8.77,10.934-22.229,17.953-37.304,17.953c-26.365,0-47.814-21.449-47.814-47.814c0-26.364,21.449-47.815,47.814-47.815
				C154.803,195.568,173.219,210.221,178.963,230.184z M139.993,243.383c0,3.847-3.13,6.977-6.977,6.977
				c-3.847,0-6.977-3.13-6.977-6.977c0-3.847,3.13-6.977,6.977-6.977C136.863,236.406,139.993,239.536,139.993,243.383z"/>
			<path d="M157.551,279.172l-8.493-12.364c-5.644,3.876-12.524,5.566-19.374,4.765l-1.749,14.897
				c1.699,0.2,3.398,0.298,5.092,0.298C141.76,286.768,150.315,284.142,157.551,279.172z"/>
			<path d="M90.727,253.101c1.365,5.957,3.92,11.453,7.595,16.337l11.985-9.021c-2.4-3.188-4.068-6.777-4.959-10.666L90.727,253.101
				z"/>
			<path d="M101.248,213.836l10.981,10.219c0.233-0.251,0.472-0.499,0.717-0.743c5.361-5.361,12.489-8.314,20.07-8.314v-15
				c-11.589,0-22.483,4.513-30.677,12.708C101.967,213.078,101.603,213.455,101.248,213.836z"/>
			<path d="M107.71,230.51l-13.37-6.799c-2.759,5.425-4.322,11.275-4.646,17.387l14.979,0.795
				C104.885,237.887,105.907,234.057,107.71,230.51z"/>
			
				<rect x="29.72" y="424.28" transform="matrix(-0.7071 -0.7071 0.7071 -0.7071 -241.7754 763.4125)" width="14.999" height="14.999"/>
			
				<rect x="47.405" y="441.944" transform="matrix(0.7071 0.7071 -0.7071 0.7071 333.8863 92.8153)" width="14.999" height="14.999"/>
			
				<rect x="65.075" y="459.627" transform="matrix(0.7071 0.7071 -0.7071 0.7071 351.565 85.5002)" width="14.999" height="14.999"/>
			
				<rect x="449.367" y="430.989" transform="matrix(-0.7071 -0.7071 0.7071 -0.7071 469.8625 1071.6)" width="14.999" height="14.999"/>
			
				<rect x="467.051" y="448.65" transform="matrix(0.7071 0.7071 -0.7071 0.7071 461.5395 -201.9547)" width="14.999" height="14.999"/>
			
				<rect x="47.676" y="359.132" transform="matrix(0.7071 0.7071 -0.7071 0.7071 293.1808 25.4629)" width="136.355" height="14.999"/>
			
				<rect x="47.762" y="298.553" transform="matrix(0.7071 0.7071 -0.7071 0.7071 232.5978 50.5646)" width="14.999" height="14.999"/>
			
				<rect x="30.083" y="280.882" transform="matrix(-0.7071 -0.7071 0.7071 -0.7071 -139.7602 518.8735)" width="14.999" height="14.999"/>
			
				<rect x="438.794" y="358.968" transform="matrix(-0.7071 -0.7071 0.7071 -0.7071 502.7415 941.1773)" width="14.999" height="14.999"/>
			
				<rect x="421.118" y="376.648" transform="matrix(-0.7071 -0.7071 0.7071 -0.7071 460.0629 958.8591)" width="14.999" height="14.999"/>
			
				<rect x="396.752" y="391.559" transform="matrix(-0.7071 -0.7071 0.7071 -0.7071 401.2385 983.2249)" width="14.999" height="33.909"/>
			<rect x="276.003" y="284.316" width="32.794" height="15"/>
			
				<rect x="109.276" y="361.073" transform="matrix(0.7071 0.7071 -0.7071 0.7071 313.3188 -19.2727)" width="141.295" height="14.999"/>
			<polygon points="372.144,389.156 382.752,399.762 446.884,335.628 496.986,385.731 496.986,496.99 389.596,496.99 
				418.293,468.295 407.685,457.688 368.383,496.99 318.931,496.99 307.351,485.409 296.744,496.016 297.719,496.99 245.505,496.99 
				210.955,462.44 200.349,473.047 224.293,496.99 159.422,496.99 114.06,451.628 103.454,462.235 138.209,496.99 15,496.99 
				15,370.098 45.649,400.747 56.254,390.142 15,348.887 15,214.271 52.475,251.747 63.081,241.14 0,178.06 0,511.989 
				511.986,511.989 511.986,379.518 446.884,314.416 			"/>
		</g>
	</g>
</g>
<g>
</g>
<g>
</g>
<g>
</g>
<g>
</g>
<g>
</g>
<g>
</g>
<g>
</g>
<g>
</g>
<g>
</g>
<g>
</g>
<g>
</g>
<g>
</g>
<g>
</g>
<g>
</g>
<g>
</g>
</svg>
